<svg width="56" height="56" viewBox="0 0 56 56" fill="none" xmlns="http://www.w3.org/2000/svg">
<rect width="56" height="56" rx="16" fill="#3F6653" fill-opacity="0.1"/>
<path d="M15.5 38.4375V36C16.1042 36 16.6198 35.9062 17.0469 35.7188C17.474 35.5312 17.9062 35.3281 18.3438 35.1094C18.7812 34.8906 19.2656 34.6927 19.7969 34.5156C20.3281 34.3385 20.9844 34.25 21.7656 34.25C22.5469 34.25 23.1927 34.3385 23.7031 34.5156C24.2135 34.6927 24.6875 34.8906 25.125 35.1094C25.5625 35.3281 26 35.5312 26.4375 35.7188C26.875 35.9062 27.3958 36 28 36C28.6042 36 29.125 35.9062 29.5625 35.7188C30 35.5312 30.4375 35.3281 30.875 35.1094C31.3125 34.8906 31.7917 34.6927 32.3125 34.5156C32.8333 34.3385 33.4844 34.25 34.2656 34.25C35.0469 34.25 35.6979 34.3385 36.2188 34.5156C36.7396 34.6927 37.2188 34.8906 37.6562 35.1094C38.0938 35.3281 38.5312 35.5312 38.9688 35.7188C39.4062 35.9062 39.9167 36 40.5 36V38.4375C39.7083 38.4375 39.0469 38.3438 38.5156 38.1562C37.9844 37.9688 37.5 37.7656 37.0625 37.5469C36.625 37.3281 36.1979 37.1302 35.7812 36.9531C35.3646 36.776 34.8542 36.6875 34.25 36.6875C33.6667 36.6875 33.1615 36.776 32.7344 36.9531C32.3073 37.1302 31.8802 37.3281 31.4531 37.5469C31.026 37.7656 30.5469 37.9688 30.0156 38.1562C29.4844 38.3438 28.8125 38.4375 28 38.4375C27.1875 38.4375 26.5156 38.3438 25.9844 38.1562C25.4531 37.9688 24.974 37.7656 24.5469 37.5469C24.1198 37.3281 23.6979 37.1302 23.2812 36.9531C22.8646 36.776 22.3594 36.6875 21.7656 36.6875C21.1719 36.6875 20.6615 36.776 20.2344 36.9531C19.8073 37.1302 19.375 37.3281 18.9375 37.5469C18.5 37.7656 18.0156 37.9688 17.4844 38.1562C16.9531 38.3438 16.2917 38.4375 15.5 38.4375V38.4375M15.5 32.875V30.4375C16.1042 30.4375 16.6198 30.3438 17.0469 30.1562C17.474 29.9688 17.9062 29.7656 18.3438 29.5469C18.7812 29.3281 19.2656 29.1302 19.7969 28.9531C20.3281 28.776 20.9844 28.6875 21.7656 28.6875C22.5469 28.6875 23.1927 28.776 23.7031 28.9531C24.2135 29.1302 24.6875 29.3281 25.125 29.5469C25.5625 29.7656 26 29.9688 26.4375 30.1562C26.875 30.3438 27.3958 30.4375 28 30.4375C28.6042 30.4375 29.125 30.3438 29.5625 30.1562C30 29.9688 30.4375 29.7656 30.875 29.5469C31.3125 29.3281 31.7917 29.1302 32.3125 28.9531C32.8333 28.776 33.4792 28.6875 34.25 28.6875C35.0417 28.6875 35.6979 28.776 36.2188 28.9531C36.7396 29.1302 37.2188 29.3281 37.6562 29.5469C38.0938 29.7656 38.5312 29.9688 38.9688 30.1562C39.4062 30.3438 39.9167 30.4375 40.5 30.4375V32.875C39.7083 32.875 39.0469 32.7812 38.5156 32.5938C37.9844 32.4062 37.5 32.2031 37.0625 31.9844C36.625 31.7656 36.1979 31.5677 35.7812 31.3906C35.3646 31.2135 34.8542 31.125 34.25 31.125C33.6458 31.125 33.1302 31.2135 32.7031 31.3906C32.276 31.5677 31.849 31.7656 31.4219 31.9844C30.9948 32.2031 30.5208 32.4062 30 32.5938C29.4792 32.7812 28.8125 32.875 28 32.875C27.1875 32.875 26.5156 32.7812 25.9844 32.5938C25.4531 32.4062 24.974 32.2031 24.5469 31.9844C24.1198 31.7656 23.6979 31.5677 23.2812 31.3906C22.8646 31.2135 22.3594 31.125 21.7656 31.125C21.1719 31.125 20.6615 31.2135 20.2344 31.3906C19.8073 31.5677 19.375 31.7656 18.9375 31.9844C18.5 32.2031 18.0156 32.4062 17.4844 32.5938C16.9531 32.7812 16.2917 32.875 15.5 32.875V32.875M15.5 27.3125V24.875C16.1042 24.875 16.6198 24.7812 17.0469 24.5938C17.474 24.4062 17.9062 24.2031 18.3438 23.9844C18.7812 23.7656 19.2656 23.5677 19.7969 23.3906C20.3281 23.2135 20.9844 23.125 21.7656 23.125C22.5469 23.125 23.1927 23.2135 23.7031 23.3906C24.2135 23.5677 24.6875 23.7656 25.125 23.9844C25.5625 24.2031 26 24.4062 26.4375 24.5938C26.875 24.7812 27.3958 24.875 28 24.875C28.6042 24.875 29.125 24.7812 29.5625 24.5938C30 24.4062 30.4375 24.2031 30.875 23.9844C31.3125 23.7656 31.7917 23.5677 32.3125 23.3906C32.8333 23.2135 33.4792 23.125 34.25 23.125C35.0417 23.125 35.6979 23.2135 36.2188 23.3906C36.7396 23.5677 37.2188 23.7656 37.6562 23.9844C38.0938 24.2031 38.5312 24.4062 38.9688 24.5938C39.4062 24.7812 39.9167 24.875 40.5 24.875V27.3125C39.7083 27.3125 39.0469 27.2188 38.5156 27.0312C37.9844 26.8438 37.5 26.6406 37.0625 26.4219C36.625 26.2031 36.1979 26.0052 35.7812 25.8281C35.3646 25.651 34.8542 25.5625 34.25 25.5625C33.6667 25.5625 33.1615 25.651 32.7344 25.8281C32.3073 26.0052 31.8802 26.2031 31.4531 26.4219C31.026 26.6406 30.5469 26.8438 30.0156 27.0312C29.4844 27.2188 28.8125 27.3125 28 27.3125C27.1875 27.3125 26.5156 27.2188 25.9844 27.0312C25.4531 26.8438 24.974 26.6406 24.5469 26.4219C24.1198 26.2031 23.6979 26.0052 23.2812 25.8281C22.8646 25.651 22.3594 25.5625 21.7656 25.5625C21.1719 25.5625 20.6615 25.651 20.2344 25.8281C19.8073 26.0052 19.375 26.2031 18.9375 26.4219C18.5 26.6406 18.0156 26.8438 17.4844 27.0312C16.9531 27.2188 16.2917 27.3125 15.5 27.3125V27.3125M15.5 21.75V19.3125C16.1042 19.3125 16.6198 19.2188 17.0469 19.0312C17.474 18.8438 17.9062 18.6406 18.3438 18.4219C18.7812 18.2031 19.2656 18.0052 19.7969 17.8281C20.3281 17.651 20.9844 17.5625 21.7656 17.5625C22.5469 17.5625 23.1927 17.651 23.7031 17.8281C24.2135 18.0052 24.6875 18.2031 25.125 18.4219C25.5625 18.6406 26 18.8438 26.4375 19.0312C26.875 19.2188 27.3958 19.3125 28 19.3125C28.6042 19.3125 29.125 19.2188 29.5625 19.0312C30 18.8438 30.4375 18.6406 30.875 18.4219C31.3125 18.2031 31.7917 18.0052 32.3125 17.8281C32.8333 17.651 33.4792 17.5625 34.25 17.5625C35.0417 17.5625 35.6979 17.651 36.2188 17.8281C36.7396 18.0052 37.2188 18.2031 37.6562 18.4219C38.0938 18.6406 38.5312 18.8438 38.9688 19.0312C39.4062 19.2188 39.9167 19.3125 40.5 19.3125V21.75C39.7083 21.75 39.0469 21.6562 38.5156 21.4688C37.9844 21.2812 37.5 21.0781 37.0625 20.8594C36.625 20.6406 36.1979 20.4427 35.7812 20.2656C35.3646 20.0885 34.8542 20 34.25 20C33.6667 20 33.1615 20.0885 32.7344 20.2656C32.3073 20.4427 31.8802 20.6406 31.4531 20.8594C31.026 21.0781 30.5469 21.2812 30.0156 21.4688C29.4844 21.6562 28.8125 21.75 28 21.75C27.1875 21.75 26.5156 21.6562 25.9844 21.4688C25.4531 21.2812 24.974 21.0781 24.5469 20.8594C24.1198 20.6406 23.6979 20.4427 23.2812 20.2656C22.8646 20.0885 22.3594 20 21.7656 20C21.1719 20 20.6615 20.0885 20.2344 20.2656C19.8073 20.4427 19.375 20.6406 18.9375 20.8594C18.5 21.0781 18.0156 21.2812 17.4844 21.4688C16.9531 21.6562 16.2917 21.75 15.5 21.75V21.75" fill="#3F6653"/>
</svg>
