<svg width="56" height="56" viewBox="0 0 56 56" fill="none" xmlns="http://www.w3.org/2000/svg">
<rect width="56" height="56" rx="16" fill="#004B75" fill-opacity="0.1"/>
<path d="M15.5 38V35.5H22.6875C22.2292 33.7292 21.3594 32.2031 20.0781 30.9219C18.7969 29.6406 17.2708 28.7708 15.5 28.3125C15.9167 28.2083 16.3281 28.1302 16.7344 28.0781C17.1406 28.026 17.5625 28 18 28C20.7917 28 23.1562 28.9688 25.0938 30.9062C27.0312 32.8438 28 35.2083 28 38H15.5V38M30.5 38C30.5 37.125 30.4062 36.2552 30.2188 35.3906C30.0312 34.526 29.7604 33.6979 29.4062 32.9062C30.2812 31.4271 31.474 30.2396 32.9844 29.3438C34.4948 28.4479 36.1667 28 38 28C38.4375 28 38.8594 28.026 39.2656 28.0781C39.6719 28.1302 40.0833 28.2083 40.5 28.3125C38.7292 28.7708 37.2083 29.6406 35.9375 30.9219C34.6667 32.2031 33.7917 33.7292 33.3125 35.5H40.5V38H30.5V38M28 30.5312C28 29.1771 28.25 27.9062 28.75 26.7188C29.25 25.5312 29.9375 24.4844 30.8125 23.5781C31.6875 22.6719 32.7135 21.9479 33.8906 21.4062C35.0677 20.8646 36.3229 20.5729 37.6562 20.5312C36.4896 21.2604 35.4688 22.1562 34.5938 23.2188C33.7188 24.2812 33.0417 25.4688 32.5625 26.7812C31.6458 27.2188 30.8073 27.7552 30.0469 28.3906C29.2865 29.026 28.6042 29.7396 28 30.5312V30.5312M25.7188 28.1875C25.4688 28 25.2188 27.8229 24.9688 27.6562C24.7188 27.4896 24.4583 27.3229 24.1875 27.1562C24.1875 27.0312 24.1979 26.901 24.2188 26.7656C24.2396 26.6302 24.25 26.5 24.25 26.375C24.25 24.7917 24 23.2917 23.5 21.875C23 20.4583 22.2917 19.1667 21.375 18C22.75 18.5625 23.9427 19.3698 24.9531 20.4219C25.9635 21.474 26.7396 22.6875 27.2812 24.0625C26.9062 24.6875 26.5833 25.349 26.3125 26.0469C26.0417 26.7448 25.8438 27.4583 25.7188 28.1875V28.1875" fill="#004B75"/>
</svg>
