<svg width="143" height="28" viewBox="0 0 143 28" fill="none" xmlns="http://www.w3.org/2000/svg">
<path d="M10.3125 24.6404C9.625 24.6404 8.93229 24.5623 8.23438 24.406C7.53646 24.2498 6.82292 24.0258 6.09375 23.7341C6.34375 21.2133 7.07292 18.8591 8.28125 16.6716C9.48958 14.4841 11.0417 12.5571 12.9375 10.8904C10.6458 12.0571 8.66146 13.5987 6.98438 15.5154C5.30729 17.4321 4.13542 19.6196 3.46875 22.0779C3.38542 22.0154 3.30729 21.9477 3.23438 21.8748C3.16146 21.8019 3.08333 21.7237 3 21.6404C2.02083 20.6612 1.27604 19.5675 0.765625 18.3591C0.255208 17.1508 0 15.8904 0 14.5779C0 13.1612 0.28125 11.8071 0.84375 10.5154C1.40625 9.22373 2.1875 8.0779 3.1875 7.0779C4.875 5.3904 7.0625 4.29144 9.75 3.78102C12.4375 3.2706 16.2083 3.22373 21.0625 3.6404C21.4375 8.61956 21.375 12.4164 20.875 15.031C20.375 17.6456 19.2917 19.7862 17.625 21.4529C16.6042 22.4737 15.4635 23.2602 14.2031 23.8123C12.9427 24.3644 11.6458 24.6404 10.3125 24.6404V24.6404" fill="#0F5238"/>
<path d="M34.5635 21.28C33.1901 21.28 32.1035 20.8933 31.3035 20.12C30.5168 19.3467 30.1235 18.24 30.1235 16.8V15.72H31.7835V16.8C31.7835 17.6667 32.0101 18.3733 32.4635 18.92C32.9301 19.4667 33.6235 19.74 34.5435 19.74C35.4768 19.74 36.1368 19.4733 36.5235 18.94C36.9101 18.3933 37.1035 17.68 37.1035 16.8V8.52H34.6435V7H40.3035V8.52H38.7835V16.8C38.7835 18.2533 38.4235 19.3667 37.7035 20.14C36.9835 20.9 35.9368 21.28 34.5635 21.28ZM44.8111 21.28C44.1311 21.28 43.5111 21.16 42.9511 20.92C42.3911 20.68 41.9511 20.3333 41.6311 19.88C41.3111 19.4267 41.1511 18.8733 41.1511 18.22C41.1511 17.5533 41.3111 17.0067 41.6311 16.58C41.9511 16.14 42.3911 15.8133 42.9511 15.6C43.5111 15.3733 44.1378 15.26 44.8311 15.26H48.1311V14.54C48.1311 13.8467 47.9245 13.3 47.5111 12.9C47.1111 12.5 46.5111 12.3 45.7111 12.3C44.9245 12.3 44.3111 12.4933 43.8711 12.88C43.4311 13.2533 43.1311 13.76 42.9711 14.4L41.4911 13.92C41.6511 13.3733 41.9045 12.88 42.2511 12.44C42.5978 11.9867 43.0578 11.6267 43.6311 11.36C44.2178 11.08 44.9178 10.94 45.7311 10.94C46.9845 10.94 47.9578 11.2667 48.6511 11.92C49.3445 12.56 49.6911 13.4667 49.6911 14.64V19.06C49.6911 19.46 49.8778 19.66 50.2511 19.66H51.1511V21H49.7711C49.3311 21 48.9778 20.88 48.7111 20.64C48.4445 20.3867 48.3111 20.0533 48.3111 19.64V19.54H48.0711C47.9245 19.7933 47.7245 20.06 47.4711 20.34C47.2311 20.6067 46.8978 20.8267 46.4711 21C46.0445 21.1867 45.4911 21.28 44.8111 21.28ZM44.9911 19.92C45.9245 19.92 46.6778 19.6467 47.2511 19.1C47.8378 18.54 48.1311 17.76 48.1311 16.76V16.54H44.8911C44.2645 16.54 43.7445 16.68 43.3311 16.96C42.9311 17.2267 42.7311 17.6333 42.7311 18.18C42.7311 18.7267 42.9378 19.1533 43.3511 19.46C43.7778 19.7667 44.3245 19.92 44.9911 19.92ZM52.815 21V11.22H54.355V12.42H54.635C54.8084 11.9933 55.075 11.68 55.435 11.48C55.795 11.28 56.2684 11.18 56.855 11.18H58.015V12.62H56.755C56.0484 12.62 55.475 12.82 55.035 13.22C54.6084 13.6067 54.395 14.2133 54.395 15.04V21H52.815ZM63.6425 21.28C62.8025 21.28 62.0292 21.08 61.3225 20.68C60.6159 20.28 60.0559 19.7 59.6425 18.94C59.2292 18.18 59.0225 17.28 59.0225 16.24V15.98C59.0225 14.94 59.2292 14.0467 59.6425 13.3C60.0559 12.54 60.6092 11.96 61.3025 11.56C62.0092 11.1467 62.7892 10.94 63.6425 10.94C64.3225 10.94 64.8959 11.0333 65.3625 11.22C65.8425 11.3933 66.2292 11.62 66.5225 11.9C66.8159 12.1667 67.0425 12.4533 67.2025 12.76H67.4825V7H69.0625V21H67.5225V19.38H67.2425C66.9759 19.8733 66.5625 20.3133 66.0025 20.7C65.4425 21.0867 64.6559 21.28 63.6425 21.28ZM64.0625 19.88C65.0759 19.88 65.8959 19.56 66.5225 18.92C67.1625 18.2667 67.4825 17.36 67.4825 16.2V16.02C67.4825 14.86 67.1625 13.96 66.5225 13.32C65.8959 12.6667 65.0759 12.34 64.0625 12.34C63.0625 12.34 62.2359 12.6667 61.5825 13.32C60.9425 13.96 60.6225 14.86 60.6225 16.02V16.2C60.6225 17.36 60.9425 18.2667 61.5825 18.92C62.2359 19.56 63.0625 19.88 64.0625 19.88ZM71.8736 21V11.22H73.4536V21H71.8736ZM72.6736 9.7C72.327 9.7 72.0336 9.58667 71.7936 9.36C71.567 9.13333 71.4536 8.84667 71.4536 8.5C71.4536 8.14 71.567 7.84667 71.7936 7.62C72.0336 7.39333 72.327 7.28 72.6736 7.28C73.0203 7.28 73.307 7.39333 73.5336 7.62C73.7603 7.84667 73.8736 8.14 73.8736 8.5C73.8736 8.84667 73.7603 9.13333 73.5336 9.36C73.307 9.58667 73.0203 9.7 72.6736 9.7ZM76.276 21V11.22H77.816V12.88H78.096C78.3093 12.4133 78.6693 11.9933 79.176 11.62C79.696 11.2333 80.456 11.04 81.456 11.04C82.1893 11.04 82.8426 11.1933 83.416 11.5C84.0026 11.8067 84.4693 12.26 84.816 12.86C85.1626 13.46 85.336 14.2 85.336 15.08V21H83.756V15.2C83.756 14.2267 83.5093 13.52 83.016 13.08C82.536 12.64 81.8826 12.42 81.056 12.42C80.1093 12.42 79.336 12.7267 78.736 13.34C78.1493 13.9533 77.856 14.8667 77.856 16.08V21H76.276ZM92.6416 21.28C91.6283 21.28 90.7216 21.1 89.9216 20.74C89.1216 20.38 88.4883 19.84 88.0216 19.12C87.5683 18.3867 87.3416 17.4733 87.3416 16.38V15.96H89.0016V16.38C89.0016 17.54 89.3416 18.4067 90.0216 18.98C90.7016 19.54 91.5749 19.82 92.6416 19.82C93.7349 19.82 94.5683 19.5733 95.1416 19.08C95.7149 18.5867 96.0016 17.9667 96.0016 17.22C96.0016 16.7 95.8683 16.2867 95.6016 15.98C95.3483 15.6733 94.9883 15.4267 94.5216 15.24C94.0549 15.04 93.5083 14.8667 92.8816 14.72L91.8416 14.46C91.0283 14.2467 90.3083 13.9867 89.6816 13.68C89.0549 13.3733 88.5616 12.9733 88.2016 12.48C87.8549 11.9733 87.6816 11.3267 87.6816 10.54C87.6816 9.75333 87.8749 9.07333 88.2616 8.5C88.6616 7.92667 89.2149 7.48667 89.9216 7.18C90.6416 6.87333 91.4683 6.72 92.4016 6.72C93.3483 6.72 94.1949 6.88667 94.9416 7.22C95.7016 7.54 96.2949 8.02 96.7216 8.66C97.1616 9.28667 97.3816 10.08 97.3816 11.04V11.88H95.7216V11.04C95.7216 10.36 95.5749 9.81333 95.2816 9.4C95.0016 8.98667 94.6083 8.68 94.1016 8.48C93.6083 8.28 93.0416 8.18 92.4016 8.18C91.4816 8.18 90.7416 8.38667 90.1816 8.8C89.6216 9.2 89.3416 9.77333 89.3416 10.52C89.3416 11.0133 89.4616 11.4133 89.7016 11.72C89.9416 12.0267 90.2816 12.28 90.7216 12.48C91.1616 12.6667 91.6883 12.8333 92.3016 12.98L93.3416 13.24C94.1549 13.4133 94.8816 13.6533 95.5216 13.96C96.1749 14.2533 96.6949 14.66 97.0816 15.18C97.4683 15.6867 97.6616 16.3533 97.6616 17.18C97.6616 18.0067 97.4549 18.7267 97.0416 19.34C96.6283 19.9533 96.0416 20.4333 95.2816 20.78C94.5349 21.1133 93.6549 21.28 92.6416 21.28ZM99.8072 21V11.22H101.347V12.44H101.627C101.814 12.0933 102.121 11.7733 102.547 11.48C102.974 11.1867 103.574 11.04 104.347 11.04C105.107 11.04 105.721 11.2067 106.187 11.54C106.667 11.8733 107.014 12.28 107.227 12.76H107.507C107.734 12.28 108.074 11.8733 108.527 11.54C108.994 11.2067 109.641 11.04 110.467 11.04C111.121 11.04 111.694 11.1733 112.187 11.44C112.681 11.7067 113.067 12.0933 113.347 12.6C113.641 13.0933 113.787 13.6867 113.787 14.38V21H112.207V14.52C112.207 13.8667 112.014 13.3533 111.627 12.98C111.254 12.5933 110.727 12.4 110.047 12.4C109.327 12.4 108.734 12.6333 108.267 13.1C107.814 13.5667 107.587 14.24 107.587 15.12V21H106.007V14.52C106.007 13.8667 105.814 13.3533 105.427 12.98C105.054 12.5933 104.527 12.4 103.847 12.4C103.127 12.4 102.534 12.6333 102.067 13.1C101.614 13.5667 101.387 14.24 101.387 15.12V21H99.8072ZM119.514 21.28C118.834 21.28 118.214 21.16 117.654 20.92C117.094 20.68 116.654 20.3333 116.334 19.88C116.014 19.4267 115.854 18.8733 115.854 18.22C115.854 17.5533 116.014 17.0067 116.334 16.58C116.654 16.14 117.094 15.8133 117.654 15.6C118.214 15.3733 118.841 15.26 119.534 15.26H122.834V14.54C122.834 13.8467 122.628 13.3 122.214 12.9C121.814 12.5 121.214 12.3 120.414 12.3C119.628 12.3 119.014 12.4933 118.574 12.88C118.134 13.2533 117.834 13.76 117.674 14.4L116.194 13.92C116.354 13.3733 116.608 12.88 116.954 12.44C117.301 11.9867 117.761 11.6267 118.334 11.36C118.921 11.08 119.621 10.94 120.434 10.94C121.688 10.94 122.661 11.2667 123.354 11.92C124.048 12.56 124.394 13.4667 124.394 14.64V19.06C124.394 19.46 124.581 19.66 124.954 19.66H125.854V21H124.474C124.034 21 123.681 20.88 123.414 20.64C123.148 20.3867 123.014 20.0533 123.014 19.64V19.54H122.774C122.628 19.7933 122.428 20.06 122.174 20.34C121.934 20.6067 121.601 20.8267 121.174 21C120.748 21.1867 120.194 21.28 119.514 21.28ZM119.694 19.92C120.628 19.92 121.381 19.6467 121.954 19.1C122.541 18.54 122.834 17.76 122.834 16.76V16.54H119.594C118.968 16.54 118.448 16.68 118.034 16.96C117.634 17.2267 117.434 17.6333 117.434 18.18C117.434 18.7267 117.641 19.1533 118.054 19.46C118.481 19.7667 119.028 19.92 119.694 19.92ZM127.518 21V11.22H129.058V12.42H129.338C129.511 11.9933 129.778 11.68 130.138 11.48C130.498 11.28 130.971 11.18 131.558 11.18H132.718V12.62H131.458C130.751 12.62 130.178 12.82 129.738 13.22C129.311 13.6067 129.098 14.2133 129.098 15.04V21H127.518ZM138.157 21C137.597 21 137.164 20.8467 136.857 20.54C136.564 20.2333 136.417 19.8133 136.417 19.28V12.6H133.477V11.22H136.417V7.74H137.997V11.22H141.197V12.6H137.997V19.04C137.997 19.44 138.191 19.64 138.577 19.64H140.757V21H138.157Z" fill="#064E3B"/>
</svg>
